
<svg xmlns="http://www.w3.org/2000/svg" width="16" height="15" fill="none" viewBox="0 0 16 15">
  <path fill="#000" d="M8 15a.512.512 0 0 1-.393-.176L2.036 8.945a3.077 3.077 0 0 1-.246-.254 9.865 9.865 0 0 1-.495-.64A8.702 8.702 0 0 1 .688 7.1 6.205 6.205 0 0 1 .21 5.918 4.642 4.642 0 0 1 0 4.57c0-1.432.378-2.552 1.134-3.36C1.89.405 2.934 0 4.268 0c.369 0 .745.07 1.13.21.383.14.74.329 1.07.566.331.238.615.461.853.67.239.208.465.429.679.663a8.53 8.53 0 0 1 .679-.664c.238-.208.522-.431.852-.669.33-.237.688-.426 1.072-.566.384-.14.76-.21 1.13-.21 1.332 0 2.377.404 3.133 1.21C15.622 2.019 16 3.139 16 4.57c0 1.44-.681 2.904-2.045 4.395l-5.562 5.86A.512.512 0 0 1 8 15Z"/>
</svg>
