<svg xmlns="http://www.w3.org/2000/svg" width="19" height="14" fill="none" viewBox="0 0 19 14">
  <path fill="#000" d="M17.396 2.563H1.604C.716 2.563 0 1.992 0 1.282S.716 0 1.604 0h15.792C18.284 0 19 .572 19 1.282c0 .71-.716 1.281-1.604 1.281ZM19 7c0-.71-.716-1.282-1.604-1.282H1.604C.716 5.718 0 6.29 0 7c0 .71.716 1.282 1.604 1.282h15.792C18.284 8.282 19 7.71 19 7Zm0 5.718c0-.71-.716-1.281-1.604-1.281H1.604c-.888 0-1.604.572-1.604 1.281C0 13.428.716 14 1.604 14h15.792c.888 0 1.604-.572 1.604-1.282Z"/>
</svg>
